<svg xmlns="http://www.w3.org/2000/svg" xmlns:xlink="http://www.w3.org/1999/xlink" id="Group_6139" data-name="Group 6139" width="248.383" height="72.852" viewBox="0 0 248.383 72.852"><defs><clipPath id="clip-path"><rect id="Rectangle_1277" data-name="Rectangle 1277" width="248.383" height="72.852" fill="none"></rect></clipPath></defs><g id="Group_6138" data-name="Group 6138" clip-path="url(#clip-path)"><path id="Path_8322" data-name="Path 8322" d="M10.837,118.219q-5.112,0-7.974-2.377A7.63,7.63,0,0,1,0,109.682a6.762,6.762,0,0,1,3.757-6.44q3.757-1.994,11.015-1.38a4.739,4.739,0,0,0-1.482-3.195,4.39,4.39,0,0,0-2.709-.843,14.588,14.588,0,0,0-2.121.128q-.844.127-1.559.28a8.419,8.419,0,0,1-1.738.153,4.283,4.283,0,0,1-2.2-.485,2.1,2.1,0,0,1-.818-1.968,3.3,3.3,0,0,1,1.815-3.092,12.484,12.484,0,0,1,5.75-1q6.235,0,9.252,3.553t3.015,9.481q0,6.85-2.479,10.095t-8.664,3.247m-3.476-8.537q0,2.913,3.935,2.913a3.675,3.675,0,0,0,1.994-.46,2.889,2.889,0,0,0,1.048-1.84,25.074,25.074,0,0,0,.486-4.14,1.39,1.39,0,0,1-.665.358,3.345,3.345,0,0,1-.818.1,11.8,11.8,0,0,0-4.677.639,2.446,2.446,0,0,0-1.3,2.428" transform="translate(0 -56.715)" fill="#e2fe20"></path><path id="Path_8323" data-name="Path 8323" d="M73.892,129.237q-3.732,0-3.731-3.987V105.111q0-6.952,3.067-10.376t8.588-3.425a11.376,11.376,0,0,1,8.868,3.578q3.246,3.579,3.246,10.479A16.963,16.963,0,0,1,92.6,112.7a8.447,8.447,0,0,1-3.68,3.961,11.547,11.547,0,0,1-5.418,1.227,10.745,10.745,0,0,1-4.37-.767,5.9,5.9,0,0,1-2.684-2.352,13.476,13.476,0,0,1,.537,1.994,18.662,18.662,0,0,1,.256,2.249q.076,1.277.076,3.271v2.965q0,3.986-3.424,3.987m8.281-17.328a4.041,4.041,0,0,0,3.348-1.507q1.2-1.508,1.2-5.7t-1.2-5.7a4.471,4.471,0,0,0-6.7,0q-1.2,1.508-1.2,5.7t1.2,5.7a4.039,4.039,0,0,0,3.348,1.507" transform="translate(-43.326 -56.385)" fill="#e2fe20"></path><path id="Path_8324" data-name="Path 8324" d="M148.811,118.219q-3.68,0-3.68-3.476V95.37q0-3.526,3.68-3.527a3.728,3.728,0,0,1,2.658.793,3.476,3.476,0,0,1,.818,2.581,5.9,5.9,0,0,1,2.633-2.529,8.973,8.973,0,0,1,4.013-.844q4.4,0,4.4,3.834a2.408,2.408,0,0,1-1.073,2.147,6.578,6.578,0,0,1-3.528.715,13.09,13.09,0,0,0-3.782.435,2.971,2.971,0,0,0-1.917,1.585,8.033,8.033,0,0,0-.537,3.3v10.887q0,3.476-3.68,3.476" transform="translate(-89.621 -56.715)" fill="#e2fe20"></path><path id="Path_8325" data-name="Path 8325" d="M205.317,118.219q-5.47,0-8.638-3.118t-3.169-10.07q0-7,3.169-10.095t8.638-3.093q5.468,0,8.638,3.093t3.169,10.095q0,6.952-3.169,10.07t-8.638,3.118m0-6.134a4.564,4.564,0,0,0,2.4-.588,3.829,3.829,0,0,0,1.507-2.121,17.83,17.83,0,0,0,0-8.689,3.834,3.834,0,0,0-1.507-2.122,5.153,5.153,0,0,0-4.779,0,3.784,3.784,0,0,0-1.534,2.122,17.856,17.856,0,0,0,0,8.689,3.779,3.779,0,0,0,1.534,2.121,4.594,4.594,0,0,0,2.377.588" transform="translate(-119.495 -56.715)" fill="#e2fe20"></path><path id="Path_8326" data-name="Path 8326" d="M279.6,97.258q-5.52,0-8.587-3.425t-3.067-10.326V61.886q0-3.987,3.731-3.987,3.425,0,3.425,3.987v4.4q0,1.993-.077,3.271a17.974,17.974,0,0,1-.255,2.224,15.8,15.8,0,0,1-.537,2.019,5.339,5.339,0,0,1,2.684-2.249,13.9,13.9,0,0,1,9.789.486,8.051,8.051,0,0,1,3.68,3.859,16.786,16.786,0,0,1,1.329,7.31q0,6.9-3.246,10.478a11.376,11.376,0,0,1-8.869,3.579m.358-6.134a4.013,4.013,0,0,0,3.348-1.533q1.2-1.534,1.2-5.725a12.974,12.974,0,0,0-.537-4.268,3.592,3.592,0,0,0-1.558-2.02,5.638,5.638,0,0,0-4.907,0,3.59,3.59,0,0,0-1.559,2.02,13,13,0,0,0-.537,4.268q0,4.192,1.2,5.725a4.013,4.013,0,0,0,3.348,1.533" transform="translate(-165.462 -35.754)" fill="#e2fe20"></path><path id="Path_8327" data-name="Path 8327" d="M349.079,118.219q-5.112,0-7.974-2.377a7.63,7.63,0,0,1-2.863-6.16,6.762,6.762,0,0,1,3.757-6.44q3.757-1.994,11.015-1.38a4.739,4.739,0,0,0-1.482-3.195,4.39,4.39,0,0,0-2.709-.843,14.579,14.579,0,0,0-2.121.128q-.844.127-1.559.28a8.419,8.419,0,0,1-1.738.153,4.283,4.283,0,0,1-2.2-.485,2.1,2.1,0,0,1-.818-1.968,3.3,3.3,0,0,1,1.815-3.092,12.484,12.484,0,0,1,5.75-1q6.235,0,9.252,3.553t3.015,9.481q0,6.85-2.479,10.095t-8.664,3.247m-3.476-8.537q0,2.913,3.935,2.913a3.675,3.675,0,0,0,1.994-.46,2.889,2.889,0,0,0,1.048-1.84,25.07,25.07,0,0,0,.486-4.14,1.39,1.39,0,0,1-.665.358,3.345,3.345,0,0,1-.818.1,11.8,11.8,0,0,0-4.677.639,2.446,2.446,0,0,0-1.3,2.428" transform="translate(-208.87 -56.715)" fill="#e2fe20"></path><path id="Path_8328" data-name="Path 8328" d="M412.215,118.219q-3.681,0-3.68-3.476V95.37q0-3.526,3.68-3.527a3.725,3.725,0,0,1,2.657.793,3.476,3.476,0,0,1,.819,2.581,5.894,5.894,0,0,1,2.632-2.529,8.978,8.978,0,0,1,4.013-.844q4.4,0,4.4,3.834a2.407,2.407,0,0,1-1.074,2.147,6.575,6.575,0,0,1-3.527.715,13.092,13.092,0,0,0-3.783.435,2.971,2.971,0,0,0-1.917,1.585,8.035,8.035,0,0,0-.536,3.3v10.887q0,3.476-3.68,3.476" transform="translate(-252.277 -56.715)" fill="#e2fe20"></path><path id="Path_8329" data-name="Path 8329" d="M468.719,118.219q-5.469,0-8.638-3.118t-3.169-10.07q0-7,3.169-10.095t8.638-3.093q5.469,0,8.639,3.093t3.168,10.095q0,6.952-3.168,10.07t-8.639,3.118m0-6.134a4.562,4.562,0,0,0,2.4-.588,3.826,3.826,0,0,0,1.508-2.121,17.855,17.855,0,0,0,0-8.689,3.831,3.831,0,0,0-1.508-2.122,5.152,5.152,0,0,0-4.778,0,3.777,3.777,0,0,0-1.534,2.122,17.857,17.857,0,0,0,0,8.689,3.772,3.772,0,0,0,1.534,2.121,4.593,4.593,0,0,0,2.376.588" transform="translate(-282.15 -56.715)" fill="#e2fe20"></path><path id="Path_8330" data-name="Path 8330" d="M535.163,118.219q-3.68,0-3.68-3.476V102.475a9.988,9.988,0,0,1,3.144-7.77,13.482,13.482,0,0,1,16.612,0,9.991,9.991,0,0,1,3.143,7.77v12.268q0,3.476-3.68,3.476t-3.681-3.476V102.885a5.474,5.474,0,0,0-1.073-3.655,4.257,4.257,0,0,0-6.032,0,5.474,5.474,0,0,0-1.073,3.655v11.859q0,3.476-3.681,3.476" transform="translate(-328.2 -56.715)" fill="#e2fe20"></path><path id="Path_8331" data-name="Path 8331" d="M12.574,28.029q-3.911,0-3.911-3.694V11.3q0-5.54,2.634-8.419T18.874,0Q25.61,0,28,4.835,30.389,0,37.125,0,42.068,0,44.7,2.88T47.337,11.3V24.335q0,3.695-3.912,3.694t-3.911-3.694v-12.6a6.722,6.722,0,0,0-.923-3.992,3.375,3.375,0,0,0-2.879-1.223q-3.911,0-3.911,5.215V24.118q0,3.695-3.8,3.694t-3.8-3.694V11.733q0-5.215-3.911-5.215-3.8,0-3.8,5.215v12.6q0,3.695-3.911,3.694" transform="translate(-5.35 -0.001)" fill="#e2fe20"></path><path id="Path_8332" data-name="Path 8332" d="M137.533,28.029q-5.431,0-8.5-1.793a9.933,9.933,0,0,1-4.345-4.943,19.1,19.1,0,0,1-1.276-7.225q0-7.5,3.313-10.782A12.093,12.093,0,0,1,135.632,0a14.774,14.774,0,0,1,5.975,1.141,9.489,9.489,0,0,1,4.074,3.232,8.629,8.629,0,0,1,1.466,5.079q0,8.691-12.385,8.691h-3.151a5.363,5.363,0,0,0,1.44,2.634,5.164,5.164,0,0,0,3.557.95,12.862,12.862,0,0,0,2.282-.163q.868-.164,1.657-.326a9.047,9.047,0,0,1,1.82-.163,4.558,4.558,0,0,1,2.335.516,2.236,2.236,0,0,1,.869,2.091,3.5,3.5,0,0,1-1.928,3.286,13.287,13.287,0,0,1-6.111,1.06m-6.3-13.906a2.085,2.085,0,0,1,.978-.788,5.481,5.481,0,0,1,1.683-.19,10.8,10.8,0,0,0,4.427-.624,2.3,2.3,0,0,0,1.222-2.254A4.241,4.241,0,0,0,138.4,7.089a3.958,3.958,0,0,0-2.879-1.113,3.606,3.606,0,0,0-3.151,1.684q-1.141,1.684-1.141,6.464" transform="translate(-76.208 -0.001)" fill="#e2fe20"></path><path id="Path_8333" data-name="Path 8333" d="M555.4,39.947,570.616,43.4a2.546,2.546,0,0,1,2.079,1.782l5.818,14.3a2.545,2.545,0,0,0,4.908-.13l6.5-30.218A2.545,2.545,0,0,0,586.7,26.1l-31.7,8.9a2.545,2.545,0,0,0,.392,4.953" transform="translate(-341.616 -16.044)" fill="#eaeaea"></path></g></svg>